<svg width="31" height="29" viewBox="0 0 31 29" fill="none" xmlns="http://www.w3.org/2000/svg">
<path d="M12 7.25076C15.22 7.25076 17.908 9.70576 18.2 12.9128L18.646 17.8228C18.686 18.2548 18.945 18.6348 19.332 18.8278L19.335 18.8298C20.202 19.2638 20.75 20.1498 20.75 21.1188V21.5008C20.75 22.7438 19.743 23.7508 18.5 23.7508H14.75V24.2508C14.75 25.7138 13.608 26.9088 12.168 26.9958L12 27.0008C10.481 27.0008 9.25 25.7698 9.25 24.2508V23.7508H5.5C4.257 23.7508 3.25 22.7438 3.25 21.5008V21.1188C3.25 20.1488 3.798 19.2638 4.665 18.8298L4.668 18.8278C5.055 18.6348 5.315 18.2548 5.354 17.8238L5.8 12.9128C6.092 9.70576 8.78 7.25076 12 7.25076ZM13.25 23.7508H10.75V24.2508C10.75 24.8978 11.242 25.4308 11.872 25.4948L12 25.5008C12.69 25.5008 13.25 24.9408 13.25 24.2508V23.7508ZM12 8.75076C9.556 8.75076 7.515 10.6148 7.294 13.0478L6.848 17.9588C6.762 18.9078 6.191 19.7438 5.338 20.1698C4.977 20.3508 4.75 20.7178 4.75 21.1188V21.5008C4.75 21.9148 5.086 22.2508 5.5 22.2508H18.5C18.914 22.2508 19.25 21.9148 19.25 21.5008V21.1188C19.25 20.7178 19.023 20.3508 18.665 20.1718C17.809 19.7438 17.238 18.9078 17.152 17.9588L16.706 13.0488C16.485 10.6138 14.444 8.75076 12 8.75076Z" fill="#2459AD"/>
<path d="M21 19C25.9706 19 30 14.9706 30 10C30 5.02944 25.9706 1 21 1C16.0294 1 12 5.02944 12 10C12 14.9706 16.0294 19 21 19Z" fill="#FF0000" stroke="white"/>
<path d="M21.63 9.083C22.1213 9.083 22.5503 9.18933 22.917 9.402C23.291 9.60733 23.577 9.897 23.775 10.271C23.973 10.645 24.072 11.0777 24.072 11.569C24.072 12.0603 23.962 12.4967 23.742 12.878C23.5293 13.2593 23.2213 13.5563 22.818 13.769C22.422 13.9743 21.9563 14.077 21.421 14.077C20.9443 14.077 20.475 13.9927 20.013 13.824C19.551 13.648 19.1623 13.4097 18.847 13.109L19.188 12.416C19.914 13.0173 20.6583 13.318 21.421 13.318C21.971 13.318 22.4 13.164 22.708 12.856C23.0233 12.5407 23.181 12.1153 23.181 11.58C23.181 11.0593 23.027 10.6413 22.719 10.326C22.411 10.0033 22.0003 9.842 21.487 9.842C20.739 9.842 20.1413 10.1463 19.694 10.755H19.067V6.168H23.764V6.916H19.969V9.71C20.4017 9.292 20.9553 9.083 21.63 9.083Z" fill="white"/>
</svg>
